<svg width="375" height="187" viewBox="0 0 375 187" fill="none" xmlns="http://www.w3.org/2000/svg">
<path d="M0 16C0 7.16344 7.16344 0 16 0H359C367.837 0 375 7.16344 375 16V92C375 92 173.5 169.5 99.5 153C25.5 136.5 0 106 0 106V16Z" fill="#90CEF1"/>
<g clip-path="url(#clip0_6350_6384)">
<circle cx="187" cy="122" r="63" fill="#E6F2F7"/>
<path d="M194.548 88.493C195.023 88.8912 195.343 89.4436 195.452 90.0537L197.264 101H171.486L173.297 90.08C173.401 89.4649 173.718 88.9063 174.194 88.5028C174.67 88.0993 175.273 87.8769 175.896 87.875H192.854C193.474 87.8761 194.073 88.0948 194.548 88.493Z" fill="white"/>
<path fill-rule="evenodd" clip-rule="evenodd" d="M200.125 103.625H168.625C167.929 103.627 167.263 103.904 166.771 104.396C166.279 104.888 166.002 105.554 166 106.25V137.75C166.002 138.446 166.279 139.112 166.771 139.604C167.263 140.096 167.929 140.373 168.625 140.375H200.125C200.821 140.373 201.487 140.096 201.979 139.604C202.471 139.112 202.748 138.446 202.75 137.75V106.25C202.748 105.554 202.471 104.888 201.979 104.396C201.487 103.904 200.821 103.627 200.125 103.625ZM196.424 124.179L186.239 134.364C185.741 134.852 185.072 135.125 184.375 135.125C183.678 135.125 183.009 134.852 182.511 134.364L172.326 124.179C170.796 122.636 169.938 120.551 169.938 118.378C169.938 116.204 170.796 114.119 172.326 112.576C173.871 111.05 175.956 110.194 178.128 110.194C180.299 110.194 182.384 111.05 183.929 112.576L184.375 113.022L184.821 112.576C186.367 111.05 188.451 110.194 190.623 110.194C192.794 110.194 194.879 111.05 196.424 112.576C197.954 114.119 198.813 116.204 198.813 118.378C198.813 120.551 197.954 122.636 196.424 124.179Z" fill="white"/>
<path d="M205.375 118.062H206.687C206.86 118.061 207.032 118.094 207.192 118.159C207.352 118.224 207.497 118.321 207.619 118.443C207.742 118.565 207.838 118.711 207.904 118.871C207.969 119.031 208.002 119.202 208 119.375V124.625C208.002 124.798 207.969 124.969 207.904 125.129C207.838 125.289 207.742 125.435 207.619 125.557C207.497 125.679 207.352 125.776 207.192 125.841C207.032 125.906 206.86 125.939 206.687 125.937H205.375V118.062Z" fill="white"/>
<path fill-rule="evenodd" clip-rule="evenodd" d="M174.202 155.507C173.727 155.109 173.407 154.556 173.297 153.946L171.486 143H197.264L195.452 153.92C195.349 154.535 195.031 155.094 194.556 155.497C194.08 155.901 193.477 156.123 192.854 156.125H175.896C175.276 156.124 174.677 155.905 174.202 155.507ZM188.312 148.25H180.437C180.089 148.25 179.756 148.388 179.509 148.634C179.263 148.881 179.125 149.214 179.125 149.562C179.125 149.911 179.263 150.244 179.509 150.491C179.756 150.737 180.089 150.875 180.437 150.875H188.312C188.661 150.875 188.994 150.737 189.241 150.491C189.487 150.244 189.625 149.911 189.625 149.562C189.625 149.214 189.487 148.881 189.241 148.634C188.994 148.388 188.661 148.25 188.312 148.25Z" fill="white"/>
<path d="M194.554 122.32L184.375 132.5L174.19 122.32C173.673 121.803 173.263 121.189 172.984 120.514C172.704 119.838 172.561 119.115 172.561 118.384C172.561 117.653 172.705 116.929 172.985 116.254C173.265 115.579 173.675 114.966 174.192 114.449C175.236 113.405 176.652 112.819 178.128 112.82C178.859 112.82 179.582 112.964 180.257 113.244C180.933 113.524 181.546 113.934 182.063 114.451L184.375 116.757L186.681 114.451C187.198 113.933 187.811 113.522 188.487 113.241C189.162 112.961 189.886 112.816 190.618 112.815C191.349 112.814 192.074 112.958 192.749 113.238C193.425 113.517 194.04 113.927 194.557 114.444C195.074 114.961 195.485 115.575 195.764 116.251C196.044 116.927 196.188 117.651 196.188 118.382C196.188 119.114 196.043 119.838 195.763 120.514C195.483 121.189 195.072 121.803 194.554 122.32Z" fill="#92CCF0"/>
<path d="M189.625 149.563C189.627 149.735 189.594 149.907 189.529 150.067C189.463 150.227 189.367 150.372 189.244 150.494C189.122 150.617 188.977 150.713 188.817 150.779C188.657 150.844 188.485 150.877 188.313 150.875H180.438C180.089 150.875 179.756 150.737 179.509 150.491C179.263 150.244 179.125 149.911 179.125 149.563C179.125 149.214 179.263 148.881 179.509 148.634C179.756 148.388 180.089 148.25 180.438 148.25H188.313C188.485 148.248 188.657 148.281 188.817 148.346C188.977 148.412 189.122 148.508 189.244 148.631C189.367 148.753 189.463 148.898 189.529 149.058C189.594 149.218 189.627 149.39 189.625 149.563Z" fill="#003B71"/>
<path fill-rule="evenodd" clip-rule="evenodd" d="M190.623 110.194C192.794 110.194 194.879 111.05 196.424 112.576C197.954 114.119 198.812 116.204 198.812 118.378C198.812 120.551 197.954 122.636 196.424 124.179L186.239 134.364C185.741 134.852 185.072 135.125 184.375 135.125C183.678 135.125 183.009 134.852 182.511 134.364L172.326 124.179C170.796 122.636 169.938 120.551 169.938 118.378C169.938 116.204 170.796 114.119 172.326 112.576C173.871 111.05 175.956 110.194 178.128 110.194C180.299 110.194 182.384 111.05 183.929 112.576L184.375 113.023L184.821 112.576C186.366 111.05 188.451 110.194 190.623 110.194ZM184.375 132.5L194.56 122.315C195.604 121.271 196.191 119.854 196.191 118.378C196.191 116.901 195.604 115.484 194.56 114.44C193.516 113.396 192.099 112.809 190.623 112.809C189.146 112.809 187.729 113.396 186.685 114.44L184.375 116.75L182.065 114.44C181.021 113.396 179.604 112.809 178.128 112.809C176.651 112.809 175.234 113.396 174.19 114.44C173.146 115.484 172.559 116.901 172.559 118.378C172.559 119.854 173.146 121.271 174.19 122.315L184.375 132.5Z" fill="#003B71"/>
<path fill-rule="evenodd" clip-rule="evenodd" d="M206.688 115.438H205.375V106.25C205.371 104.859 204.817 103.526 203.833 102.542C202.849 101.559 201.516 101.004 200.125 101H199.915L198.025 89.6338C197.826 88.4071 197.196 87.2918 196.248 86.4882C195.3 85.6846 194.096 85.2456 192.854 85.25H175.896C174.654 85.2456 173.45 85.6846 172.502 86.4882C171.554 87.2918 170.924 88.4071 170.725 89.6338L168.835 101H168.625C167.234 101.004 165.901 101.559 164.917 102.542C163.933 103.526 163.379 104.859 163.375 106.25V137.75C163.379 139.141 163.934 140.474 164.917 141.458C165.901 142.442 167.234 142.996 168.625 143H168.835L170.725 154.366C170.924 155.593 171.554 156.708 172.502 157.512C173.45 158.315 174.654 158.754 175.896 158.75H192.854C194.096 158.754 195.3 158.315 196.248 157.512C197.196 156.708 197.826 155.593 198.025 154.366L199.915 143H200.125C201.516 142.996 202.849 142.442 203.833 141.458C204.816 140.474 205.371 139.141 205.375 137.75V128.563H206.688C207.205 128.563 207.717 128.462 208.195 128.264C208.673 128.067 209.108 127.777 209.473 127.411C209.839 127.045 210.129 126.611 210.327 126.133C210.524 125.655 210.626 125.142 210.625 124.625V119.375C210.626 118.858 210.524 118.345 210.327 117.867C210.129 117.389 209.839 116.955 209.473 116.589C209.108 116.223 208.673 115.933 208.195 115.736C207.717 115.538 207.205 115.437 206.688 115.438ZM173.297 90.08C173.401 89.465 173.719 88.9063 174.194 88.5028C174.67 88.0993 175.273 87.8769 175.896 87.875H192.854C193.474 87.8761 194.073 88.0948 194.548 88.4931C195.023 88.8913 195.343 89.4437 195.452 90.0538L197.264 101H171.486L173.297 90.08ZM195.452 153.92C195.349 154.535 195.031 155.094 194.556 155.497C194.08 155.901 193.477 156.123 192.854 156.125H175.896C175.276 156.124 174.677 155.905 174.202 155.507C173.727 155.109 173.407 154.556 173.297 153.946L171.486 143H197.264L195.452 153.92ZM202.75 137.75C202.748 138.446 202.471 139.112 201.979 139.604C201.487 140.096 200.821 140.373 200.125 140.375H168.625C167.929 140.373 167.263 140.096 166.771 139.604C166.279 139.112 166.002 138.446 166 137.75V106.25C166.002 105.554 166.279 104.888 166.771 104.396C167.263 103.904 167.929 103.627 168.625 103.625H200.125C200.821 103.627 201.487 103.904 201.979 104.396C202.471 104.888 202.748 105.554 202.75 106.25V137.75ZM208 124.625C208.002 124.798 207.969 124.969 207.904 125.129C207.838 125.289 207.742 125.435 207.619 125.557C207.497 125.679 207.352 125.776 207.192 125.841C207.032 125.906 206.86 125.939 206.688 125.938H205.375V118.063H206.688C206.86 118.061 207.032 118.094 207.192 118.159C207.352 118.224 207.497 118.321 207.619 118.443C207.742 118.565 207.838 118.711 207.904 118.871C207.969 119.031 208.002 119.202 208 119.375V124.625Z" fill="#003B71"/>
</g>
<defs>
<clipPath id="clip0_6350_6384">
<rect width="126" height="126" fill="white" transform="translate(124 59)"/>
</clipPath>
</defs>
</svg>
